<?xml version="1.0" encoding="UTF-8"?>
<svg xmlns="http://www.w3.org/2000/svg" xmlns:xlink="http://www.w3.org/1999/xlink" viewBox="0 0 512 512" width="512px" height="512px">
<g id="surface85640783">
<path style=" stroke:none;fill-rule:nonzero;fill:rgb(0%,0%,0%);fill-opacity:1;" d="M 256 110.398438 C 175.589844 110.398438 110.398438 175.589844 110.398438 256 C 110.398438 336.410156 175.589844 401.601562 256 401.601562 C 336.410156 401.601562 401.601562 336.410156 401.601562 256 C 401.601562 175.589844 336.410156 110.398438 256 110.398438 Z M 216.800781 323.199219 L 188.800781 323.199219 L 188.800781 222.398438 L 216.800781 222.398438 Z M 202.714844 211.199219 L 202.558594 211.199219 C 194.203125 211.199219 188.800781 204.972656 188.800781 197.195312 C 188.800781 189.246094 194.371094 183.199219 202.878906 183.199219 C 211.394531 183.199219 216.644531 189.246094 216.800781 197.195312 C 216.800781 204.96875 211.394531 211.199219 202.714844 211.199219 Z M 323.199219 323.199219 L 295.199219 323.199219 L 295.199219 272.800781 C 295.199219 256 287.101562 250.398438 278.398438 250.398438 C 270.308594 250.398438 261.601562 256 261.601562 272.800781 L 261.601562 323.199219 L 233.601562 323.199219 L 233.601562 222.398438 L 261.601562 222.398438 L 261.601562 239.199219 C 263.519531 233.707031 272.710938 222.398438 289.601562 222.398438 C 312 222.398438 323.199219 239.199219 323.199219 267.199219 Z M 323.199219 323.199219 "/>
</g>
</svg>
